<svg height="512pt" viewBox="-49 0 512 512" width="512pt" xmlns="http://www.w3.org/2000/svg"><path d="m368.898438 43.421875h-41.957032c-1.359375 0-2.457031 1.097656-2.457031 2.457031v37.421875c0-1.355469-1.101563-2.453125-2.457031-2.453125h-41.957032c-1.355468 0-2.457031 1.097656-2.457031 2.453125v-46.457031c0-1.359375-1.097656-2.457031-2.453125-2.457031h-41.960937c-1.355469 0-2.457031 1.097656-2.457031 2.457031v-34.296875c0-1.40625-1.058594-2.546875-2.363282-2.546875h-42.140625c-1.304687 0-2.363281 1.140625-2.363281 2.546875v21.296875c0-1.40625-1.058594-2.546875-2.367188-2.546875h-42.136718c-1.308594 0-2.367188 1.140625-2.367188 2.546875v38.992188c0-1.355469-1.097656-2.453126-2.457031-2.453126h-41.957031c-1.355469 0-2.457032 1.097657-2.457032 2.453126v-24.882813c0-1.355469-1.097656-2.457031-2.453124-2.457031h-41.957032c-1.359375 0-2.457031 1.101562-2.457031 2.457031v236.277344h46.871094v24.882812h46.867187v68.050781h46.871094c0-2.371093 0-9.933593 0-21.296874h46.867188v34.386718h46.871093v-60.675781h46.867188v-37.425781h46.871093v-236.277344c.003907-1.355469-1.097656-2.453125-2.453124-2.453125zm0 0" fill="#ffcd71"/><path d="m90.136719 274.230469h-46.871094v-236.277344c0-1.355469 1.097656-2.457031 2.457031-2.457031h41.957032c1.355468 0 2.457031 1.101562 2.457031 2.457031zm0 0" fill="#ffc14f"/><path d="m137.003906 299.113281h-46.867187v-236.277343c0-1.355469 1.097656-2.457032 2.453125-2.457032h41.960937c1.355469 0 2.457031 1.101563 2.457031 2.457032v236.277343zm0 0" fill="#ffa90b"/><path d="m181.507812 21.296875h-42.136718c-1.304688 0-2.367188 1.140625-2.367188 2.546875v343.320312h46.871094c0-17.875 0-330.582031 0-343.320312 0-1.40625-1.058594-2.546875-2.367188-2.546875zm0 0" fill="#ffc14f"/><path d="m228.378906 0h-42.136718c-1.308594 0-2.367188 1.140625-2.367188 2.546875v343.320313h46.871094v-343.320313c0-1.40625-1.058594-2.546875-2.367188-2.546875zm0 0" fill="#ffcd71"/><path d="m277.613281 380.253906h-46.867187v-343.410156c0-1.359375 1.097656-2.457031 2.453125-2.457031h41.960937c1.355469 0 2.457032 1.097656 2.457032 2.457031v343.410156zm0 0" fill="#ffa90b"/><path d="m324.484375 319.578125h-46.871094v-236.277344c0-1.355469 1.101563-2.453125 2.457031-2.453125h41.960938c1.355469 0 2.453125 1.097656 2.453125 2.453125zm0 0" fill="#ffc14f"/><path d="m371.355469 282.152344h-46.871094v-236.277344c0-1.355469 1.101563-2.453125 2.457031-2.453125h41.957032c1.359374 0 2.457031 1.097656 2.457031 2.453125zm0 0" fill="#ffa90b"/><path d="m413.929688 227.269531-63.992188 247.855469-5.476562 21.21875c-2.375 9.226562-10.550782 15.65625-19.902344 15.65625h-234.492188c-9.355468 0-17.53125-6.429688-19.90625-15.65625l-69.46875-269.074219c-3.441406-13.320312 6.40625-26.363281 19.914063-26.363281h93.0625c1.625 0 2.914062 1.355469 2.914062 3.007812v.03125c0 51.125 40.625 92.566407 90.730469 92.566407 50.101562 0 90.726562-41.441407 90.726562-92.566407v-.03125c0-1.652343 1.289063-3.007812 2.914063-3.007812h93.0625c13.507813 0 23.355469 13.042969 19.914063 26.363281zm0 0" fill="#f44545"/><path d="m413.929688 227.269531-63.992188 247.855469h-225.53125c-9.351562 0-17.527344-6.425781-19.914062-15.65625l-66.742188-258.5625h75.917969c1.625 0 2.914062 1.355469 2.914062 3.007812v.03125c0 51.125 40.625 92.566407 90.730469 92.566407 50.101562 0 90.726562-41.441407 90.726562-92.566407v-.03125c0-1.652343 1.289063-3.007812 2.914063-3.007812h93.0625c13.507813 0 23.355469 13.042969 19.914063 26.363281zm0 0" fill="#fb5858"/></svg>