<svg height="512pt" viewBox="-6 0 512 512.00026" width="512pt" xmlns="http://www.w3.org/2000/svg"><path d="m181.867188 145.125-9.460938 21.757812-10.902344 25.074219h-35.910156l-117.957031-65.59375v-.019531c-1.4375-.847656-2.753907-1.925781-3.871094-3.21875-1.117187-1.285156-2.039063-2.765625-2.691406-4.429688-2.824219-7.1875.082031-15.363281 6.824219-19.144531l15.777343-10.101562.050781-.09375.0625.019531 27.152344-17.378906c8.789063-5.632813 8.53125-18.5625-.484375-23.832032l-31.128906-18.191406c-5.890625-3.445312-9.183594-10.289062-7.671875-16.945312.125-.558594.277344-1.097656.464844-1.625 2.703125-7.917969 11.261718-11.988282 19.152344-9.761719l52.683593 13.800781c7.441407 1.953125 14.140625 5.742188 19.542969 10.890625 5.414062 5.144531 9.546875 11.625 11.875 18.964844 7.734375 24.390625-6.4375 50.289063-31.148438 56.9375l-7.507812 2.019531c-3.527344 1.457032-3.570312 6.449219-.0625 7.960938zm0 0" fill="#f29500"/><path d="m172.40625 166.882812-10.902344 25.074219h-35.910156l-117.957031-65.59375v-.019531c-1.4375-.847656-2.753907-1.925781-3.871094-3.21875-1.117187-1.285156-2.039063-2.765625-2.691406-4.429688-2.824219-7.1875.082031-15.363281 6.824219-19.144531l15.777343-10.101562.050781-.09375.0625.019531 27.152344-17.378906c8.789063-5.632813 8.53125-18.5625-.484375-23.832032l-31.128906-18.191406c-5.890625-3.445312-9.183594-10.289062-7.671875-16.945312.125-.558594.277344-1.097656.464844-1.625l29.007812 7.597656c7.441406 1.957031 14.140625 5.746094 19.542969 10.890625 5.414063 5.144531 9.546875 11.625 11.875 18.964844 7.734375 24.390625-6.4375 50.292969-31.148437 56.941406l-7.507813 2.015625c-3.527344 1.460938-3.570313 6.449219-.0625 7.960938zm0 0" fill="#ffa90b"/><path d="m276.804688 150.816406c-17.640626 11.664063-18.601563 27.410156-22.484376 35.609375-5.914062 16.503907-19.9375 27.917969-36.015624 31.328125-8.546876 1.804688-17.664063 1.351563-26.453126-1.792968-25.308593-9.050782-38.597656-37.164063-29.546874-62.46875 1.460937-6.027344 10.660156-20.769532 3.9375-39.675782-11.210938-31.558594.183593-67.898437 29.667968-86.914062 19.277344-12.433594 42.445313-14.695313 62.925782-8.074219 14.890624 4.800781 28.359374 14.289063 37.875 27.96875 23.808593 34.226563 14.675781 81.144531-19.90625 104.019531zm0 0" fill="#ffb52d"/><path d="m276.804688 150.816406c-17.640626 11.664063-18.601563 27.410156-22.484376 35.609375-5.914062 16.503907-19.9375 27.917969-36.015624 31.328125-22.871094-10.359375-34.4375-36.925781-25.835938-60.96875 1.460938-6.027344 10.660156-20.769531 3.933594-39.675781-11.207032-31.558594.175781-67.898437 29.671875-86.914063 10.167969-6.554687 21.40625-10.273437 32.761719-11.367187 14.890624 4.800781 28.359374 14.289063 37.875 27.96875 23.808593 34.226563 14.675781 81.144531-19.90625 104.019531zm0 0" fill="#ffc14f"/><path d="m468.9375 24.433594c-.546875-7.085938-3.921875-13.960938-10.003906-18.773438-10.527344-8.328125-25.957032-7.367187-35.351563 2.226563-10.804687 11.035156-9.933593 28.707031 1.570313 38.652343.007812.007813.015625.015626.023437.023438 1.28125 1.105469 1.464844 3.023438.359375 4.304688l-93.949218 108.648437c-4.488282 5.191406-3.914063 13.113281 1.277343 17.605469l7.082031 6.121094c5.191407 4.488281 13.113282 3.914062 17.605469-1.277344l93.945313-108.644532c1.109375-1.285156 3.035156-1.378906 4.316406-.269531.007812.007813.015625.015625.023438.023438 11.503906 9.945312 29.117187 8.253906 38.476562-4.03125 8.132812-10.675781 6.859375-26.085938-2.902344-35.300781-5.640625-5.324219-12.925781-7.671876-20.019531-7.1875-1.273437.085937-2.355469-.851563-2.453125-2.121094zm0 0" fill="#ebebf0"/><path d="m400.894531 173.15625c-2.300781 3.304688-9.421875 9.089844-13.449219 18.800781h-135.769531c4.53125-26.015625 24.304688-47.972656 51.699219-53.945312 18.707031-4.078125 24.648438-17.0625 30.609375-22.703125 15.902344-18.40625 43.976563-20.433594 62.375-4.535156 6.136719 5.3125 10.453125 11.96875 12.886719 19.171874 4.878906 14.390626 2.246094 30.957032-8.351563 43.210938zm0 0" fill="#f29500"/><path d="m400.894531 173.15625c-2.300781 3.304688-9.421875 9.089844-13.449219 18.800781h-103.667968c9.265625-14.128906 23.863281-24.78125 41.679687-28.664062 18.703125-4.078125 24.648438-17.0625 30.609375-22.703125 13.429688-15.550782 35.550782-19.410156 53.179688-10.644532 4.878906 14.390626 2.246094 30.957032-8.351563 43.210938zm0 0" fill="#ffa90b"/><path d="m396.742188 214.546875-16.667969 95.574219-12.453125 71.429687-21.625 124c-.652344 3.726563-3.894532 6.449219-7.671875 6.449219h-188.15625c-3.757813 0-6.976563-2.679688-7.660157-6.375l-22.785156-124.074219-13.117187-71.429687-17.554688-95.574219zm0 0" fill="#f44545"/><path d="m396.742188 214.546875-16.667969 95.574219-12.453125 71.429687-21.625 124c-.652344 3.726563-3.894532 6.449219-7.671875 6.449219h-157.097657c-3.757812 0-6.976562-2.679688-7.660156-6.375l-22.785156-124.074219-13.117188-71.429687-17.558593-95.574219zm0 0" fill="#fb5858"/><path d="m429.777344 186.625v33.40625c0 8.46875-6.875 15.34375-15.34375 15.34375h-343.078125c-8.464844 0-15.339844-6.875-15.339844-15.34375v-33.40625c0-8.476562 6.875-15.339844 15.339844-15.339844h343.078125c8.46875 0 15.34375 6.863282 15.34375 15.339844zm0 0" fill="#c42d2d"/><g fill="#d63030"><path d="m429.777344 186.625v21.71875h-323.5c-8.480469 0-15.34375-6.863281-15.34375-15.332031v-21.726563h323.5c8.46875 0 15.34375 6.863282 15.34375 15.339844zm0 0"/><path d="m380.074219 310.121094-12.453125 71.429687h-87.726563c0 20.433594-16.5625 37-37 37-20.433593 0-37-16.566406-37-37h-86.171875l-13.117187-71.429687h99.300781c0-.042969-.011719-.085938-.011719-.136719 0-20.425781 16.566407-36.988281 37-36.988281 20.4375 0 37 16.5625 37 36.988281 0 .050781-.011719.09375-.011719.136719zm0 0"/><path d="m380.074219 310.121094-12.453125 71.429687h-87.726563c0 20.433594-16.5625 37-37 37-20.433593 0-37-16.566406-37-37h-86.171875l-13.117187-71.429687h99.300781c0-.042969-.011719-.085938-.011719-.136719 0-20.425781 16.566407-36.988281 37-36.988281 20.4375 0 37 16.5625 37 36.988281 0 .050781-.011719.09375-.011719.136719zm0 0"/></g><path d="m150.78125 381.550781h-31.058594l-13.117187-71.429687h31.058593zm0 0" fill="#c42d2d"/></svg>