<svg height="511pt" viewBox="-80 0 511 511.99983" width="511pt" xmlns="http://www.w3.org/2000/svg"><path d="m288.082031 157.101562-12.746093 103.082032-15.136719 122.445312-14.226563 115.136719c-1 8.128906-7.902344 14.234375-16.09375 14.234375h-148.914062c-8.191406 0-15.09375-6.117188-16.105469-14.246094l-14.15625-115.125-15.042969-122.445312-12.671875-103.082032zm0 0" fill="#ae583e"/><path d="m265.582031 133.9375h-220.097656l31.179687-61.5c1.296876-2.5625 3.921876-4.175781 6.800782-4.175781h144.667968c2.890626 0 5.527344 1.632812 6.8125 4.21875zm0 0" fill="#ae583e"/><path d="m288.082031 157.101562-12.746093 103.082032-15.136719 122.445312-14.226563 115.136719c-1 8.128906-7.902344 14.234375-16.09375 14.234375h-109.058594c-8.1875 0-15.101562-6.117188-16.101562-14.246094l-14.15625-115.125-15.042969-122.445312-12.671875-103.082032zm0 0" fill="#c0694e"/><path d="m265.582031 133.9375h-180.238281l31.179688-61.5c1.296874-2.5625 3.921874-4.175781 6.789062-4.175781h104.820312c2.890626 0 5.527344 1.632812 6.8125 4.21875zm0 0" fill="#c0694e"/><path d="m310.566406 138.429688v37.339843c0 6.226563-5.042968 11.273438-11.273437 11.273438h-287.519531c-6.230469 0-11.273438-5.046875-11.273438-11.273438v-37.339843c0-6.226563 5.042969-11.28125 11.273438-11.28125h287.519531c6.230469 0 11.273437 5.054687 11.273437 11.28125zm0 0" fill="#7c3f2c"/><path d="m310.566406 138.429688v13.523437h-266.285156c-6.230469 0-11.273438-5.046875-11.273438-11.273437v-13.53125h266.285157c6.230469 0 11.273437 5.054687 11.273437 11.28125zm0 0" fill="#954c35"/><path d="m289.980469 251.480469-6.027344 48.714843-5.238281 42.421876-6.148438 49.753906c-.253906 2.125-2.070312 3.730468-4.214844 3.730468h-225.808593c-2.144531 0-3.949219-1.605468-4.214844-3.738281l-6.117187-49.746093-5.210938-42.421876-5.984375-48.714843c-.304687-2.53125 1.664063-4.765625 4.21875-4.765625h260.527344c2.554687 0 4.535156 2.234375 4.21875 4.765625zm0 0" fill="#f29500"/><path d="m289.980469 251.480469-6.027344 48.714843-5.238281 42.421876-6.148438 49.753906c-.253906 2.125-2.070312 3.730468-4.214844 3.730468h-185.4375c-2.144531 0-3.953124-1.605468-4.21875-3.738281l-6.117187-49.746093-5.207031-42.421876-5.984375-48.714843c-.308594-2.53125 1.664062-4.765625 4.21875-4.765625h220.15625c2.554687 0 4.535156 2.234375 4.21875 4.765625zm0 0" fill="#ffb52d"/><path d="m203.53125 321.40625c0 26.507812-21.488281 47.996094-47.996094 47.996094-26.511718 0-48-21.488282-48-47.996094s21.488282-48 48-48c26.507813 0 47.996094 21.492188 47.996094 48zm0 0" fill="#954c35"/><path d="m283.953125 300.195312-5.238281 42.421876h-246.503906l-5.210938-42.421876zm0 0" fill="#954c35"/><path d="m197.972656 10.046875c-1.46875-3.964844-5.878906-5.984375-9.84375-4.511719l-19.636718 7.289063c-2.164063.800781-4.507813 1.003906-6.777344.582031l-10.195313-1.886719c-8.0625-1.492187-16.347656.597657-22.738281 5.734375l-21.28125 17.125c-3.296875 2.652344-3.820312 7.472656-1.167969 10.769532 1.515625 1.878906 3.734375 2.855468 5.972657 2.855468 1.6875 0 3.382812-.550781 4.796874-1.691406l21.28125-17.121094c2.90625-2.339844 6.675782-3.292968 10.34375-2.609375l10.199219 1.890625c4.992188.921875 10.140625.476563 14.898438-1.289062l19.632812-7.289063c3.96875-1.472656 5.988281-5.878906 4.515625-9.847656zm0 0" fill="#d2d2d7"/><path d="m349.566406 3.523438c-2.28125-3.5585942-7.019531-4.59375-10.582031-2.308594l-57.980469 37.1875c-2.222656 1.429687-4.929687 1.765625-7.4375.925781-2.503906-.835937-4.46875-2.734375-5.382812-5.210937-4.554688-12.269532-18.28125-18.660157-30.601563-14.238282l-36.636719 13.140625c-3.980468 1.425781-6.050781 5.8125-4.621093 9.792969 1.429687 3.984375 5.8125 6.050781 9.796875 4.625l36.632812-13.140625c4.453125-1.597656 9.417969.710937 11.066406 5.148437 2.539063 6.84375 7.96875 12.097657 14.890626 14.414063 2.5.832031 5.074218 1.246094 7.632812 1.246094 4.527344 0 9.003906-1.289063 12.929688-3.808594l57.984374-37.191406c3.558594-2.28125 4.59375-7.019531 2.308594-10.582031zm0 0" fill="#d2d2d7"/><path d="m67.371094 300.195312h-40.371094l5.210938 42.421876h40.367187zm0 0" fill="#7c3f2c"/></svg>