<svg height="512pt" viewBox="-1 0 512 512.00028" width="512pt" xmlns="http://www.w3.org/2000/svg"><path d="m234.96875 1.761719c-23.464844-3.054688-46.535156-2.066407-68.507812 2.414062-84.664063 17.28125-152.921876 86.597657-164.699219 177.09375-11.066407 85.0625 30.886719 164.792969 100.277343 205.929688 22.863282 13.558593 48.699219 22.925781 76.59375 26.90625.882813.132812 1.765626.257812 2.648438.371093 93.230469 12.140626 180.070312-39.4375 216.703125-121.007812 8.148437-18.144531 13.8125-37.765625 16.503906-58.5 14.832031-113.964844-65.535156-218.375-179.519531-233.207031zm-50.816406 286.21875c-12.121094-3.617188-23.59375-10.050781-33.382813-19.328125-33.378906-31.636719-34.804687-84.511719-3.167969-117.894532 31.621094-33.367187 84.511719-34.792968 117.878907-3.167968 33.382812 31.625 34.804687 84.511718 3.171875 117.890625-.230469.238281-.449219.46875-.699219.707031-22.3125 23.03125-54.902344 30.417969-83.800781 21.792969zm0 0" fill="#ffb52d"/><path d="m397.984375 293.46875c-36.632813 81.570312-123.472656 133.148438-216.703125 121.007812-.882812-.113281-1.765625-.238281-2.648438-.371093-27.894531-3.980469-53.730468-13.347657-76.59375-26.90625 8.65625-26.554688 23.476563-50.332031 42.777344-69.632813 1.410156-1.402344 2.855469-2.792968 4.3125-4.15625 10.546875-9.839844 22.300782-18.402344 35.023438-25.429687 28.898437 8.625 61.488281 1.238281 83.800781-21.792969h36.011719c34.597656 0 66.84375 10.007812 94.019531 27.28125zm0 0" fill="#ffa90b"/><path d="m234.96875 1.761719c-23.464844-3.054688-46.535156-2.066407-68.507812 2.414062-.890626 4.664063-1.195313 9.621094-.789063 14.816407 1.238281 15.726562-4.46875 30.265624-14.425781 40.769531-9.953125 10.507812-24.160156 16.984375-39.945313 16.597656-49.085937-1.183594-72.988281 58.644531-38.121093 91.691406.726562.6875 1.464843 1.363281 2.234374 2.015625 23.269532 19.914063 24.890626 55.113282 4.085938 77.0625-.625.664063-1.28125 1.320313-1.964844 1.964844-36.269531 34.5625-9.082031 95.535156 40.871094 91.640625 15.734375-1.238281 30.273438 4.476563 40.769531 14.433594 10.519531 9.964843 16.992188 24.164062 16.617188 39.9375-.164063 6.859375.863281 13.21875 2.839843 19 .882813.132812 1.765626.257812 2.648438.371093 113.964844 14.839844 218.378906-65.535156 233.207031-179.507812 14.832031-113.964844-65.535156-218.375-179.519531-233.207031zm33.683594 263.71875c-31.625 33.371093-84.511719 34.792969-117.882813 3.171875-33.378906-31.636719-34.804687-84.511719-3.167969-117.894532 31.621094-33.367187 84.511719-34.792968 117.878907-3.167968 33.382812 31.625 34.804687 84.511718 3.171875 117.890625zm0 0" fill="#fb5858"/><path d="m267.953125 266.1875c-18.839844 20.445312-52.328125 31.339844-83.800781 21.792969-22.507813 12.429687-42.902344 30.164062-58.761719 52.660156 28.3125 1.445313 51.097656 25.289063 50.402344 54.464844-.164063 6.859375.863281 13.21875 2.839843 19 87 13.292969 178.941407-32.203125 219.351563-120.636719-57.300781-36.417969-109.125-25.246094-130.03125-27.28125zm0 0" fill="#f44545"/><path d="m510.785156 504.183594c0 2.164062-.875 4.117187-2.285156 5.53125-1.414062 1.414062-3.367188 2.285156-5.53125 2.285156h-370.375c-4.3125 0-7.816406-3.503906-7.816406-7.816406 0-48.449219 19.644531-92.324219 51.390625-124.074219 1.414062-1.414063 2.859375-2.804687 4.3125-4.167969 31.367187-29.296875 73.464843-47.222656 119.765625-47.222656h35.074218c82.523438 0 151.738282 56.960938 170.464844 133.71875 3.265625 13.386719 5 27.363281 5 41.746094zm0 0" fill="#954c35"/><path d="m505.785156 462.4375h-336.082031c-4.3125 0-7.8125-3.5-7.8125-7.8125 0-28.289062 6.691406-55.019531 18.589844-78.683594 31.367187-29.296875 73.464843-47.222656 119.765625-47.222656h35.074218c82.523438 0 151.738282 56.960938 170.464844 133.71875zm0 0" fill="#ae583e"/><g fill="#7c3f2c"><path d="m248.03125 336.617188v83.628906c0 12.167968-9.953125 22.125-22.125 22.125-12.167969 0-22.125-9.957032-22.125-22.125v-62.65625c13.550781-8.9375 28.421875-16.046875 44.25-20.972656zm0 0"/><path d="m339.902344 328.78125v91.464844c0 12.167968-9.957032 22.125-22.125 22.125-12.160156 0-22.117188-9.957032-22.117188-22.125v-91.464844c1.527344-.042969 3.054688-.0625 4.585938-.0625h35.074218c1.527344 0 3.054688.019531 4.582032.0625zm0 0"/><path d="m431.769531 357.589844v62.65625c0 12.167968-9.953125 22.125-22.113281 22.125-12.167969 0-22.125-9.957032-22.125-22.125v-83.628906c15.828125 4.925781 30.6875 12.035156 44.238281 20.972656zm0 0"/><path d="m286.425781 60.835938c0 7.121093-5.769531 12.894531-12.890625 12.894531s-12.894531-5.773438-12.894531-12.894531c0-7.121094 5.773437-12.894532 12.894531-12.894532s12.890625 5.773438 12.890625 12.894532zm0 0"/><path d="m360.152344 225.082031c0 7.121094-5.773438 12.894531-12.894532 12.894531-7.121093 0-12.894531-5.773437-12.894531-12.894531 0-7.121093 5.773438-12.894531 12.894531-12.894531 7.121094 0 12.894532 5.773438 12.894532 12.894531zm0 0"/><path d="m360.152344 291.46875c0 7.121094-5.773438 12.894531-12.894532 12.894531-7.121093 0-12.894531-5.773437-12.894531-12.894531s5.773438-12.894531 12.894531-12.894531c7.121094 0 12.894532 5.773437 12.894532 12.894531zm0 0"/><path d="m118.878906 291.46875c0 7.121094-5.769531 12.894531-12.890625 12.894531-7.121093 0-12.894531-5.773437-12.894531-12.894531s5.773438-12.894531 12.894531-12.894531c7.121094 0 12.890625 5.773437 12.890625 12.894531zm0 0"/><path d="m211.949219 33.949219c0 7.121093-5.773438 12.894531-12.894531 12.894531-7.121094 0-12.894532-5.773438-12.894532-12.894531 0-7.121094 5.773438-12.894531 12.894532-12.894531 7.121093 0 12.894531 5.773437 12.894531 12.894531zm0 0"/><path d="m199.054688 322.644531c0 7.121094-5.773438 12.894531-12.894532 12.894531s-12.894531-5.773437-12.894531-12.894531c0-7.121093 5.773437-12.890625 12.894531-12.890625s12.894532 5.769532 12.894532 12.890625zm0 0"/><path d="m229.574219 78.449219c0 7.121093-5.773438 12.894531-12.894531 12.894531-7.121094 0-12.894532-5.773438-12.894532-12.894531 0-7.121094 5.773438-12.890625 12.894532-12.890625 7.121093 0 12.894531 5.769531 12.894531 12.890625zm0 0"/><path d="m105.988281 124.03125c0 7.121094-5.773437 12.894531-12.894531 12.894531s-12.894531-5.773437-12.894531-12.894531 5.773437-12.894531 12.894531-12.894531 12.894531 5.773437 12.894531 12.894531zm0 0"/><path d="m326.320312 145.164062c0 7.121094-5.773437 12.894532-12.894531 12.894532-7.121093 0-12.894531-5.773438-12.894531-12.894532 0-7.121093 5.773438-12.894531 12.894531-12.894531 7.121094 0 12.894531 5.773438 12.894531 12.894531zm0 0"/><path d="m377.226562 161.128906c0 7.121094-5.773437 12.894532-12.894531 12.894532-7.121093 0-12.890625-5.773438-12.890625-12.894532s5.769532-12.894531 12.890625-12.894531c7.121094 0 12.894531 5.773437 12.894531 12.894531zm0 0"/></g></svg>