<svg height="512pt" viewBox="-177 0 512 512.00001" width="512pt" xmlns="http://www.w3.org/2000/svg"><path d="m53.199219 42.480469h51.816406v65.636719h-51.816406zm0 0" fill="#d2d2d7"/><path d="m79.105469 42.480469h25.910156v65.636719h-25.910156zm0 0" fill="#ebebf0"/><path d="m124.4375 10.539062v36.148438c0 5.804688-4.734375 10.542969-10.539062 10.542969h-69.582032c-5.804687 0-10.539062-4.738281-10.539062-10.542969v-36.148438c0-5.804687 4.734375-10.539062 10.539062-10.539062h69.582032c5.804687 0 10.539062 4.734375 10.539062 10.539062zm0 0" fill="#f44545"/><path d="m124.4375 10.539062v19.453126h-54.210938c-5.804687 0-10.542968-4.746094-10.542968-10.539063v-19.453125h54.214844c5.804687 0 10.539062 4.734375 10.539062 10.539062zm0 0" fill="#fb5858"/><path d="m158.214844 274.859375v210.769531c0 7.285156-2.953125 13.878906-7.722656 18.65625-12.464844 12.472656-33.628907 9.449219-41.972657-6.363281-1.300781-2.445313-4.769531-2.464844-6.082031 0-9.886719 18.71875-36.753906 18.773437-46.660156 0-1.3125-2.464844-4.78125-2.445313-6.082032 0-12.808593 24.253906-49.695312 15.152344-49.695312-12.292969v-210.769531c0-12.074219 3.875-17.347656 16.777344-43.164063 5.472656-10.957031 5.070312-23.960937-1.136719-34.511718-28.949219-49.230469 7.273437-112.167969 65.230469-110.8125 4.609375.117187 9.066406.625 13.355468 1.515625h.011719c47.707031 9.84375 74.238281 65.167969 48.390625 109.214843-6.199218 10.550782-6.726562 23.492188-1.265625 34.449219l12.582031 25.203125c2.808594 5.628906 4.269532 11.824219 4.269532 18.105469zm0 0" fill="#954c35"/><path d="m158.214844 274.859375v210.769531c0 7.285156-2.953125 13.878906-7.722656 18.65625-12.464844 12.472656-33.628907 9.449219-41.972657-6.363281-1.300781-2.445313-4.769531-2.464844-6.082031 0-9.886719 18.71875-36.753906 18.773437-46.660156 0-1.3125-2.464844-4.78125-2.445313-6.082032 0-3.796874 7.191406-10.832031 12.484375-19.296874 13.773437v-236.835937c0-12.074219 3.886718-17.347656 16.777343-43.164063 5.472657-10.957031 5.070313-23.960937-1.140625-34.511718-25.980468-44.191406.550782-99.441406 48.191406-109.296875h.011719c47.707031 9.84375 74.238281 65.167969 48.390625 109.214843-6.199218 10.550782-6.726562 23.492188-1.265625 34.449219l12.582031 25.203125c2.808594 5.628906 4.269532 11.824219 4.269532 18.105469zm0 0" fill="#ae583e"/><path d="m158.214844 293.972656v138.179688h-108.820313c-10.488281 0-18.996093-8.5-18.996093-18.996094v-100.1875c0-10.488281 8.507812-18.996094 18.996093-18.996094zm0 0" fill="#f44545"/><path d="m158.214844 293.972656v138.179688h-76.691406c-10.488282 0-19-8.5-19-18.996094v-100.1875c0-10.488281 8.511718-18.996094 19-18.996094zm0 0" fill="#fb5858"/><g fill="#7c3f2c"><path d="m96.957031 143.777344c0 6.097656-4.941406 11.039062-11.039062 11.039062-6.097657 0-11.039063-4.941406-11.039063-11.039062s4.941406-11.039063 11.039063-11.039063c6.097656 0 11.039062 4.941407 11.039062 11.039063zm0 0"/><path d="m125.203125 173.195312c0 6.09375-4.945313 11.035157-11.039063 11.035157-6.097656 0-11.039062-4.941407-11.039062-11.035157 0-6.097656 4.941406-11.039062 11.039062-11.039062 6.09375 0 11.039063 4.941406 11.039063 11.039062zm0 0"/><path d="m99.207031 204.007812c0 6.097657-4.941406 11.039063-11.039062 11.039063-6.09375 0-11.035157-4.941406-11.035157-11.039063 0-6.09375 4.941407-11.039062 11.035157-11.039062 6.097656 0 11.039062 4.945312 11.039062 11.039062zm0 0"/><path d="m73.5625 454.964844c0 6.09375-4.941406 11.039062-11.039062 11.039062-6.09375 0-11.035157-4.945312-11.035157-11.039062 0-6.097656 4.941407-11.039063 11.035157-11.039063 6.097656 0 11.039062 4.941407 11.039062 11.039063zm0 0"/><path d="m107.417969 477.089844c0 6.097656-4.941407 11.039062-11.039063 11.039062s-11.039062-4.941406-11.039062-11.039062 4.941406-11.039063 11.039062-11.039063 11.039063 4.941407 11.039063 11.039063zm0 0"/></g></svg>