<svg height="512pt" viewBox="-5 0 512 512" width="512pt" xmlns="http://www.w3.org/2000/svg"><path d="m499.027344 145.523438c-1.980469 5.253906-3.710938 10.25-4.972656 14.933593-9.246094 34.257813-6.894532 74.683594-27.566407 95.015625-22.1875 21.8125-59.535156 13.140625-86.664062 21.78125-29.738281 9.472656-58.425781 38.425782-83.378907 35.835938-9.40625-.984375-17.582031-2.933594-24.421874-5.640625-24.582032-9.707031-32.023438-29.167969-18.539063-48.445313 10.507813-15.023437 7.707031-51.460937 26.382813-70.910156 14.113281-14.707031 45.140624-9.078125 64.371093-24.050781 16.3125-12.707031 22.871094-48.292969 43.132813-59.898438 17.851562-10.238281 46.113281 4.964844 67.210937-3.5625.464844-.1875.941407-.394531 1.429688-.613281 18.28125-8.238281 36.425781 1.804688 43.003906 18.25 3.214844 8.03125 3.667969 17.605469.011719 27.304688zm0 0" fill="#1ed688"/><path d="m499.027344 145.523438c-1.980469 5.253906-3.710938 10.25-4.972656 14.933593-9.246094 34.257813-6.894532 74.683594-27.566407 95.015625-22.1875 21.8125-59.535156 13.140625-86.664062 21.78125-29.738281 9.472656-58.425781 38.425782-83.378907 35.835938-9.40625-.984375-17.582031-2.933594-24.421874-5.640625-3.316407-8.515625-1.824219-18.246094 4.941406-27.925781 10.519531-15.027344 7.710937-51.460938 26.394531-70.921876 14.101563-14.695312 45.140625-9.066406 64.363281-24.042968 16.308594-12.703125 22.878906-48.289063 43.128906-59.90625 17.863282-10.226563 46.113282 4.972656 67.210938-3.554688.476562-.1875.953125-.394531 1.429688-.609375 6.714843-3.027343 13.410156-3.585937 19.523437-2.269531 3.214844 8.03125 3.667969 17.605469.011719 27.304688zm0 0" fill="#35e298"/><path d="m479.324219 161.015625c-1.929688-3.832031-6.601563-5.375-10.4375-3.445313-13.296875 6.699219-25.375 4.894532-32.410157 2.691407l16.035157-14.679688c3.167969-2.898437 3.386719-7.816406.484375-10.980469-2.894532-3.167968-7.8125-3.386718-10.980469-.484374l-48.578125 44.472656c-2.972656-3.78125-7.808594-11.886719-5.929688-22.914063.722657-4.230469-2.121093-8.246093-6.355468-8.96875-4.222656-.71875-8.246094 2.125-8.96875 6.355469-2.996094 17.554688 5.054687 30.285156 9.785156 36.027344l-58.835938 53.871094c-2.320312-2.480469-9.539062-11.417969-7.300781-24.535157.71875-4.230469-2.125-8.246093-6.355469-8.96875-4.226562-.71875-8.246093 2.121094-8.96875 6.351563-3.316406 19.433594 6.90625 32.960937 11.171876 37.636718l-50.152344 45.917969c-5.222656 4.78125-1.800782 13.503907 5.25 13.503907 5.746094 0 2.492187-.554688 90.867187-80.429688 14.429688 8.078125 35.1875 9.410156 53.359375.257812 3.832032-1.929687 5.375-6.605468 3.441406-10.4375-1.929687-3.832031-6.601562-5.375-10.4375-3.445312-14.28125 7.195312-27.152343 4.582031-33.882812 2.199219l53.671875-49.140625c15.273437 7.644531 34.757813 8.308594 52.082031-.417969 3.835938-1.929687 5.378906-6.601563 3.445313-10.4375zm0 0" fill="#1ab975"/><path d="m249.960938 350.910156c-18.238282-1.914062-48.769532 18.179688-74.828126 11.253906-19.703124-5.230468-29.804687-35.097656-52.21875-44.671874-19.007812-8.125-53.328124 3.367187-73.296874-8.726563-17.59375-10.671875-17.980469-42.753906-35.65625-57.085937-.394532-.320313-.800782-.644532-1.222657-.953126-20.125-15.046874-15.039062-43.804687 5.699219-55.265624 3.90625-2.164063 8.371094-3.710938 13.324219-4.433594 5.546875-.808594 10.757812-1.722656 15.472656-2.882813 34.445313-8.507812 68.683594-30.132812 96.476563-21.886719 29.824218 8.851563 40.332031 45.722657 61.027343 65.277344 22.683594 21.429688 61.914063 32.507813 71.71875 55.59375 1.824219 4.300782 3.304688 8.457032 4.433594 12.4375 9.453125 33.035156-4.257813 54.152344-30.929687 51.34375zm0 0" fill="#1ab975"/><path d="m280.890625 299.566406c-5.097656 2.496094-11.34375 3.480469-18.535156 2.722656-18.25-1.914062-48.769531 18.175782-74.832031 11.253907-19.699219-5.222657-29.800782-35.097657-52.214844-44.671875-19.007813-8.113282-53.328125 3.378906-73.296875-8.726563-17.597657-10.664062-17.980469-42.757812-35.65625-57.085937-.394531-.324219-.800781-.632813-1.222657-.953125-2.675781-2-4.902343-4.230469-6.695312-6.644531 3.90625-2.164063 8.371094-3.710938 13.324219-4.433594 5.546875-.808594 10.757812-1.722656 15.472656-2.882813 34.445313-8.507812 68.683594-30.132812 96.476563-21.886719 29.824218 8.851563 40.332031 45.722657 61.027343 65.277344 22.683594 21.429688 61.914063 32.507813 71.71875 55.59375 1.824219 4.300782 3.304688 8.457032 4.433594 12.4375zm0 0" fill="#35e298"/><path d="m206.664062 38.820312c0 6.007813-1.367187 11.707032-3.8125 16.796876-6.257812 13.023437-19.585937 22.019531-35.003906 22.019531-21.433594 0-38.820312-17.378907-38.820312-38.816407 0-18.4375 12.851562-33.867187 30.074218-37.824218 2.804688-.652344 5.738282-.996094 8.746094-.996094 21.4375 0 38.816406 17.378906 38.816406 38.820312zm0 0" fill="#d63030"/><path d="m300.789062 114.28125c0 6.007812-1.367187 11.707031-3.804687 16.796875 0 0 0 0-.007813 0-6.261718 13.027344-19.585937 22.019531-35.007812 22.019531-21.4375 0-38.816406-17.378906-38.816406-38.816406 0-18.425781 12.839844-33.855469 30.050781-37.824219h.011719c2.816406-.652343 5.75-.996093 8.753906-.996093 21.441406 0 38.820312 17.378906 38.820312 38.820312zm0 0" fill="#fb5858"/><path d="m206.664062 38.820312c0 6.007813-1.367187 11.707032-3.8125 16.796876-2.820312.652343-5.742187.996093-8.746093.996093-21.441407 0-38.820313-17.378906-38.820313-38.820312 0-6.019531 1.367188-11.71875 3.816406-16.796875 2.804688-.652344 5.738282-.996094 8.746094-.996094 21.4375 0 38.816406 17.378906 38.816406 38.820312zm0 0" fill="#f44545"/><path d="m300.789062 114.28125c0 6.007812-1.367187 11.707031-3.804687 16.796875 0 0 0 0-.007813 0-2.808593.652344-5.742187.996094-8.757812.996094-21.441406 0-38.820312-17.378907-38.820312-38.820313 0-6.011718 1.371093-11.710937 3.804687-16.796875h.011719c2.816406-.652343 5.75-.996093 8.753906-.996093 21.441406 0 38.820312 17.378906 38.820312 38.820312zm0 0" fill="#fc7979"/><path d="m286.3125 309.59375-110.046875-36.953125c.019531-3.351563-.65625-29.785156-25.613281-46.8125-3.546875-2.421875-8.378906-1.503906-10.800782 2.042969-2.417968 3.542968-1.503906 8.378906 2.039063 10.796875 13.214844 9.015625 17.160156 21.542969 18.332031 28.585937l-68.984375-23.164062c-.273437-6.609375-2.882812-29.878906-25.585937-45.367188-3.542969-2.421875-8.378906-1.507812-10.800782 2.039063-2.417968 3.546875-1.503906 8.382812 2.042969 10.800781 12.300781 8.390625 16.570313 19.832031 18.046875 27.054688l-20.609375-6.921876c-4.070312-1.367187-8.476562.824219-9.839843 4.894532-1.367188 4.066406.820312 8.472656 4.890624 9.839844l62.4375 20.964843c-1.871093 4.433594-6.621093 12.59375-17.175781 16.285157-4.050781 1.417968-6.1875 5.851562-4.769531 9.902343 1.414062 4.046875 5.847656 6.191407 9.902344 4.769531 16.808594-5.875 24.050781-19.085937 26.785156-26.003906l75.625 25.394532c-1.046875 3.230468-5.371094 13.875-17.933594 18.269531-4.050781 1.414062-6.1875 5.847656-4.769531 9.898437 1.414063 4.046875 5.847656 6.191406 9.902344 4.773438 18.605469-6.507813 25.492187-22.003906 27.515625-28 67.457031 22.5 64.554687 22.050781 66.9375 22.050781 8.75 0 10.804687-12.34375 2.472656-15.140625zm0 0" fill="#169b62"/><path d="m459.710938 331.925781c0 38.808594-12.28125 74.746094-33.160157 104.148438-5.875 8.269531-12.425781 16.03125-19.585937 23.179687-32.578125 32.589844-77.59375 52.746094-127.328125 52.746094h-35.335938c-99.449219 0-180.070312-80.621094-180.070312-180.074219zm0 0" fill="#0a66ea"/><path d="m459.710938 331.925781c0 38.808594-12.28125 74.746094-33.160157 104.148438-30.105469 22.628906-67.523437 36.039062-108.09375 36.039062h-35.335937c-85.742188 0-157.492188-59.925781-175.636719-140.1875zm0 0" fill="#2476ed"/><path d="m490.820312 319.855469c0 15.355469-12.445312 27.800781-27.8125 27.800781h-402.085937c-7.675781 0-14.628906-3.105469-19.65625-8.144531-5.035156-5.023438-8.144531-11.976563-8.144531-19.65625 0-15.359375 12.445312-27.8125 27.800781-27.8125h402.085937c7.6875 0 14.628907 3.105469 19.667969 8.144531 3.855469 3.855469 6.578125 8.839844 7.648438 14.414062.328125 1.699219.496093 3.460938.496093 5.253907zm0 0" fill="#0956c6"/><path d="m490.324219 314.601562h-399.773438c-7.679687 0-14.632812-3.109374-19.667969-8.144531-3.855468-3.855469-6.582031-8.839843-7.648437-14.414062h399.773437c7.6875 0 14.628907 3.105469 19.667969 8.144531 3.855469 3.855469 6.578125 8.839844 7.648438 14.414062zm0 0" fill="#0a66ea"/></svg>