<svg height="512pt" viewBox="-5 0 512 512" width="512pt" xmlns="http://www.w3.org/2000/svg"><path d="m385.394531 44.441406c-4.226562 0-7.652343-3.425781-7.652343-7.652344v-24.914062c0-4.230469 3.425781-7.65625 7.652343-7.65625 4.226563 0 7.652344 3.425781 7.652344 7.65625v24.914062c0 4.226563-3.425781 7.652344-7.652344 7.652344zm0 0" fill="#5a5f64"/><path d="m179.9375 273.769531-67.347656 131.578125c-6.503906 12.796875-24.902344 12.894532-31.507813 0l-67.347656-131.578125c-38.109375-63.632812 7.4375-146.367187 83.101563-146.367187 75.53125 0 121.304687 82.582031 83.101562 146.367187zm0 0" fill="#1ed688"/><path d="m490.972656 141.792969v32.601562h-211.148437v-32.601562c0-40.46875 22.898437-75.59375 56.453125-93.113281 14.519531-7.59375 31.03125-11.886719 48.550781-11.886719h1.132813c57.988281 0 105.011718 47.007812 105.011718 105zm0 0" fill="#d2d2d7"/><path d="m490.972656 141.792969v7.683593h-147.257812c-18.011719 0-32.601563-14.59375-32.601563-32.59375 0-26.039062 9.480469-49.855468 25.164063-68.203124 14.519531-7.59375 31.03125-11.886719 48.550781-11.886719h1.132813c57.988281 0 105.011718 47.007812 105.011718 105zm0 0" fill="#ebebf0"/><path d="m157.375 238.84375c-3.855469 16.164062-13.773438 29.871094-27.929688 38.574219-3.53125 2.164062-7.242187 3.957031-11.089843 5.375-6.847657 2.542969-14.09375 3.847656-21.429688 3.847656-21.828125 0-41.675781-11.082031-53.082031-29.632813-17.96875-29.234374-8.816406-67.632812 20.40625-85.601562 9.816406-6.042969 21.074219-9.234375 32.523438-9.234375 7.570312 0 14.90625 1.324219 21.722656 3.847656 12.847656 4.742188 23.898437 13.671875 31.359375 25.792969 8.703125 14.164062 11.378906 30.859375 7.519531 47.03125zm0 0" fill="#169b62"/><path d="m157.375 238.84375c-3.855469 16.164062-13.773438 29.871094-27.929688 38.574219-3.53125 2.164062-7.242187 3.957031-11.089843 5.375-12.847657-4.734375-23.910157-13.660157-31.359375-25.785157-17.980469-29.234374-8.824219-67.632812 20.410156-85.601562 3.53125-2.175781 7.242188-3.980469 11.089844-5.386719 12.847656 4.742188 23.898437 13.671875 31.359375 25.792969 8.703125 14.164062 11.378906 30.859375 7.519531 47.03125zm0 0" fill="#1ab975"/><path d="m243.324219 512h-133.882813c-15.371094 0-27.878906-12.507812-27.878906-27.878906v-30.320313c0-8.453125 6.851562-15.308593 15.304688-15.308593 8.453124 0 15.304687 6.855468 15.304687 15.308593v27.585938h128.417969v-57.492188c0-15.371093 12.507812-27.878906 27.882812-27.878906h202.082032v-78.402344h-72.585938c-15.375 0-27.882812-12.507812-27.882812-27.878906v-55.777344c0-8.453125 6.855468-15.304687 15.308593-15.304687s15.304688 6.851562 15.304688 15.304687v53.042969h72.589843c15.371094 0 27.878907 12.507812 27.878907 27.882812v83.863282c0 15.375-12.507813 27.882812-27.878907 27.882812h-202.085937v57.492188c0 15.371094-12.507813 27.878906-27.878906 27.878906zm0 0" fill="#35e298"/><g fill="#7d8287"><path d="m411.351562 15.304688h-51.914062c-4.230469 0-7.65625-3.425782-7.65625-7.652344 0-4.226563 3.425781-7.652344 7.65625-7.652344h51.914062c4.226563 0 7.652344 3.425781 7.652344 7.652344 0 4.226562-3.425781 7.652344-7.652344 7.652344zm0 0"/><path d="m283.25 164.183594h204.285156c7.21875 0 13.074219 5.851562 13.074219 13.074218v.421876c0 7.21875-5.855469 13.070312-13.074219 13.070312h-204.285156c-7.21875 0-13.070312-5.851562-13.070312-13.070312v-.421876c0-7.222656 5.851562-13.074218 13.070312-13.074218zm0 0"/></g></svg>