<svg height="512pt" viewBox="-24 0 512 512" width="512pt" xmlns="http://www.w3.org/2000/svg"><path d="m263.730469 29.871094v452.265625c0 16.488281-13.371094 29.863281-29.875 29.863281h-203.976563c-16.503906 0-29.878906-13.375-29.878906-29.863281v-452.265625c0-16.492188 13.375-29.86718775 29.878906-29.86718775h203.976563c16.503906 0 29.875 13.37499975 29.875 29.86718775zm0 0" fill="#d2d2d7"/><path d="m263.730469 29.871094v452.265625c0 16.488281-13.371094 29.863281-29.875 29.863281h-167.46875c-16.503907 0-29.875-13.375-29.875-29.863281v-452.265625c0-16.492188 13.371093-29.86718775 29.875-29.86718775h167.46875c16.503906 0 29.875 13.37499975 29.875 29.86718775zm0 0" fill="#ebebf0"/><path d="m38.917969 0 13.335937 57.738281c.90625 3.933594 4.414063 6.722657 8.453125 6.722657h142.324219c4.039062 0 7.546875-2.789063 8.453125-6.722657l13.335937-57.738281c-65.449218 0-147.132812 0-185.902343 0zm0 0" fill="#b9b9be"/><path d="m238.359375 102.183594v367.527344c0 4.710937-3.824219 8.519531-8.519531 8.519531h-195.933594c-4.710938 0-8.519531-3.808594-8.519531-8.519531v-367.527344c0-4.710938 3.808593-8.519532 8.519531-8.519532h195.933594c4.695312 0 8.519531 3.808594 8.519531 8.519532zm0 0" fill="#954c35"/><path d="m238.359375 102.183594v367.527344c0 4.710937-3.824219 8.519531-8.519531 8.519531h-159.425782c-4.710937 0-8.519531-3.808594-8.519531-8.519531v-367.527344c0-4.710938 3.808594-8.519532 8.519531-8.519532h159.425782c4.695312 0 8.519531 3.808594 8.519531 8.519532zm0 0" fill="#c0694e"/><path d="m145.929688 22.464844h-66.308594c-5.042969 0-9.128906 4.085937-9.128906 9.128906 0 5.039062 4.085937 9.125 9.128906 9.125h66.308594c5.039062 0 9.125-4.085938 9.125-9.125 0-5.042969-4.085938-9.128906-9.125-9.128906zm0 0" fill="#7d8287"/><path d="m184.117188 31.59375c0 5.4375-4.40625 9.847656-9.847657 9.847656-5.4375 0-9.847656-4.410156-9.847656-9.847656 0-5.441406 4.410156-9.851562 9.847656-9.851562 5.441407 0 9.847657 4.410156 9.847657 9.851562zm0 0" fill="#7d8287"/><path d="m456.039062 254.984375c-4.664062 13.5625-11.660156 26.582031-21.066406 38.464844-53.585937 67.707031-157.144531 65.269531-207.582031-4.6875-2.488281-3.453125-6.683594-5.257813-10.90625-4.726563l-31.121094 3.875c-10.9375 1.371094-17.53125-11.753906-9.910156-19.71875l25.691406-26.871094c2.496094-2.609374 3.625-6.238281 3.109375-9.816406-3.992187-27.347656.695313-55.910156 14.566406-81.207031 3.9375-7.203125 8.625-14.140625 14.078126-20.703125 44.441406-53.566406 124.167968-62.460938 179.351562-20.027344 45.574219 35.050782 61.402344 94.132813 43.789062 145.417969zm0 0" fill="#1ed688"/><g fill="#dba999"><path d="m187.457031 126.910156h-122.125c-4.296875 0-7.777343 3.480469-7.777343 7.777344 0 4.292969 3.480468 7.773438 7.777343 7.773438h122.125c4.296875 0 7.777344-3.480469 7.777344-7.773438 0-4.296875-3.480469-7.777344-7.777344-7.777344zm0 0"/><path d="m168.796875 172.957031h-103.464844c-4.296875 0-7.777343 3.484375-7.777343 7.777344s3.480468 7.773437 7.777343 7.773437h103.464844c4.296875 0 7.777344-3.480468 7.777344-7.773437s-3.484375-7.777344-7.777344-7.777344zm0 0"/><path d="m168.796875 219.003906h-103.464844c-4.296875 0-7.777343 3.484375-7.777343 7.777344s3.480468 7.773438 7.777343 7.773438h103.464844c4.296875 0 7.777344-3.480469 7.777344-7.773438s-3.484375-7.777344-7.777344-7.777344zm0 0"/><path d="m137.695312 265.054688h-72.363281c-4.296875 0-7.777343 3.480468-7.777343 7.773437s3.480468 7.777344 7.777343 7.777344h72.363281c4.296876 0 7.777344-3.484375 7.777344-7.777344s-3.484375-7.773437-7.777344-7.773437zm0 0"/><path d="m137.695312 311.101562h-72.363281c-4.296875 0-7.777343 3.480469-7.777343 7.773438 0 4.296875 3.480468 7.777344 7.777343 7.777344h72.363281c4.296876 0 7.777344-3.480469 7.777344-7.777344 0-4.292969-3.484375-7.773438-7.777344-7.773438zm0 0"/></g><path d="m215.792969 371.234375v47.53125c0 .675781-.042969 1.347656-.117188 2-.992187 8.699219-8.363281 15.449219-17.332031 15.449219h-125.609375c-9.640625 0-17.457031-7.808594-17.457031-17.449219v-47.53125c0-9.644531 7.816406-17.460937 17.457031-17.460937h125.609375c9.640625 0 17.449219 7.816406 17.449219 17.460937zm0 0" fill="#35e298"/><path d="m215.792969 371.234375v47.53125c0 .675781-.042969 1.347656-.117188 2h-121.605469c-9.640624 0-17.457031-7.816406-17.457031-17.445313v-47.535156c0-.683594.039063-1.359375.125-2.011718h121.605469c9.640625 0 17.449219 7.816406 17.449219 17.460937zm0 0" fill="#7af4ab"/><path d="m102.9375 392.582031c2.605469-2.234375 4.003906-5.78125 4.003906-10.285156 0-8.664063-5.292968-13.4375-14.90625-13.4375h-13.683594c-3.53125 0-6.09375 2.003906-6.09375 4.757813v42.460937c0 2.332031 2.09375 4.691406 6.09375 4.691406h14.820313c9.652344 0 14.972656-5.648437 14.972656-15.90625-.167969-.75 1.070313-8.523437-5.207031-12.28125zm-17.222656-11.535156h5.453125c1.777343 0 2.25 1.960937 2.25 3.121094 0 1.054687-.46875 3.050781-2.25 3.050781h-5.453125zm5.121094 27.535156h-5.121094v-10.242187c5.050781.433594 8.90625-1.691406 8.90625 4.585937-.183594.542969.976562 5.65625-3.785156 5.65625zm0 0" fill="#1ab975"/><path d="m138.140625 373.554688v30.304687c0 3.496094-1.542969 5.121094-4.855469 5.121094s-4.851562-1.625-4.851562-5.121094v-30.304687c0-6.273438-13.523438-6.332032-13.523438 0v30.304687c0 11.164063 6.527344 17.308594 18.375 17.308594 11.679688 0 18.378906-6.308594 18.378906-17.308594v-30.304687c0-6.273438-13.523437-6.332032-13.523437 0zm0 0" fill="#1ab975"/><path d="m190.160156 368.859375c-4.148437 0-3.589844 1.824219-12.289062 17.386719-8.746094-15.542969-8.242188-17.386719-12.347656-17.386719-5.992188 0-9.820313 4.277344-8.332032 7.257813l13.902344 23.042968c.011719 11.925782.015625 15.570313.019531 16.535156v.15625c0-.035156 0-.066406 0-.097656v.132813.101562c0-.015625 0-.050781 0-.078125v.097656c0 6.359376 13.523438 6.355469 13.523438 0v-16.753906s.003906-.007812.007812-.011718c.007813-.015626.019531-.03125.027344-.046876-.011719.015626-.019531.03125-.027344.042969.011719-.011719.023438-.035156.042969-.066406 0-.003906.003906-.007813.003906-.011719v.003906c.007813-.011718.015625-.023437.023438-.039062-.007813.011719-.015625.023438-.023438.035156.011719-.019531.027344-.039062.039063-.0625.027343-.042968.054687-.085937.074219-.125 0 0 0 .003906-.003907.007813.007813-.007813.011719-.019531.019531-.03125.070313-.121094.132813-.222657.175782-.296875-.003906.011718-.011719.023437-.019532.035156.015626-.027344.03125-.050781.046876-.078125-.007813.015625-.015626.027344-.027344.046875.011718-.015625.019531-.03125.027344-.046875 0 0 0 0 .003906-.003906l-.003906.003906c.015624-.027344.03125-.050781.046874-.074219-.003906.003906-.007812.011719-.011718.019532.0625-.105469.082031-.136719.070312-.117188 1.105469-1.851562 4.441406-7.421875 13.363282-22.320312 1.507812-3.039063-2.472657-7.257813-8.332032-7.257813zm0 0" fill="#1ab975"/><path d="m456.039062 254.984375c-23.644531 35.113281-63.765624 58.210937-109.289062 58.210937-72.714844 0-131.664062-58.945312-131.664062-131.660156 0-10.761718 1.296874-21.222656 3.734374-31.238281 3.9375-7.203125 8.625-14.140625 14.078126-20.703125 44.441406-53.566406 124.167968-62.460938 179.351562-20.027344 45.574219 35.050782 61.402344 94.132813 43.789062 145.417969zm0 0" fill="#35e298"/><path d="m431.664062 210.683594c6.253907-3.554688 10.484376-10.265625 10.484376-17.976563 0-11.417969-9.257813-20.675781-20.675782-20.675781-11.417968 0-20.675781 9.257812-20.675781 20.675781 0 2.660157.515625 5.195313 1.429687 7.527344h-96.496093v20.898437h96.496093c-.914062 2.332032-1.429687 4.871094-1.429687 7.527344 0 11.417969 9.257813 20.675782 20.675781 20.675782 11.417969 0 20.675782-9.257813 20.675782-20.675782 0-7.710937-4.230469-14.421875-10.484376-17.976562zm0 0" fill="#ebebf0"/><path d="m362.113281 212.160156c0 5.097656-1.378906 9.972656-3.828125 14.128906-2.453125 4.148438-5.992187 7.566407-10.304687 9.777344l-57.785157 29.492188c-18.410156 5.660156-38.410156.707031-52.207031-13.476563-10.214843-10.492187-16.621093-24.902343-16.828125-40.773437-.125-8.6875 1.585938-16.960938 4.769532-24.425782 4.136718-9.722656 10.574218-17.625 18.351562-23.285156 13.714844-9.992187 31.585938-13.039062 48.308594-6.945312l56.378906 32.140625c7.371094 4.1875 12.210938 12.015625 13.019531 20.753906.082031.859375.125 1.730469.125 2.613281zm0 0" fill="#954c35"/><path d="m361.988281 209.546875-51.058593 26.0625c-18.410157 5.660156-38.410157.703125-52.207032-13.46875-10.210937-10.5-16.621094-24.910156-16.828125-40.78125-.09375-6.179687.746094-12.152344 2.386719-17.761719 13.714844-9.992187 31.589844-13.039062 48.308594-6.945312l56.378906 32.140625c7.371094 4.1875 12.210938 12.015625 13.019531 20.753906zm0 0" fill="#c0694e"/></svg>