<svg height="512pt" viewBox="-38 0 511 512" width="512pt" xmlns="http://www.w3.org/2000/svg"><path d="m264.230469 29.871094v452.265625c0 16.488281-13.371094 29.863281-29.875 29.863281h-203.976563c-16.503906 0-29.878906-13.375-29.878906-29.863281v-452.265625c0-16.492188 13.375-29.86718775 29.878906-29.86718775h203.976563c16.503906 0 29.875 13.37499975 29.875 29.86718775zm0 0" fill="#d2d2d7"/><path d="m264.230469 29.871094v452.265625c0 16.488281-13.371094 29.863281-29.875 29.863281h-167.46875c-16.503907 0-29.875-13.375-29.875-29.863281v-452.265625c0-16.492188 13.371093-29.86718775 29.875-29.86718775h167.46875c16.503906 0 29.875 13.37499975 29.875 29.86718775zm0 0" fill="#ebebf0"/><path d="m39.417969 0 13.335937 57.738281c.90625 3.933594 4.414063 6.722657 8.453125 6.722657h142.324219c4.039062 0 7.546875-2.789063 8.453125-6.722657l13.335937-57.738281c-38.613281 0-147.359374 0-185.902343 0zm0 0" fill="#b9b9be"/><path d="m238.859375 102.183594v367.527344c0 4.710937-3.824219 8.519531-8.519531 8.519531h-195.933594c-4.710938 0-8.519531-3.808594-8.519531-8.519531v-367.527344c0-4.710938 3.808593-8.519532 8.519531-8.519532h195.933594c4.695312 0 8.519531 3.808594 8.519531 8.519532zm0 0" fill="#954c35"/><path d="m238.859375 102.183594v367.527344c0 4.710937-3.824219 8.519531-8.519531 8.519531h-159.425782c-4.710937 0-8.519531-3.808594-8.519531-8.519531v-367.527344c0-4.710938 3.808594-8.519532 8.519531-8.519532h159.425782c4.695312 0 8.519531 3.808594 8.519531 8.519532zm0 0" fill="#c0694e"/><path d="m146.429688 22.464844h-66.308594c-5.039063 0-9.128906 4.085937-9.128906 9.128906 0 5.039062 4.089843 9.125 9.128906 9.125h66.308594c5.039062 0 9.125-4.085938 9.125-9.125 0-5.042969-4.085938-9.128906-9.125-9.128906zm0 0" fill="#7d8287"/><path d="m184.617188 31.59375c0 5.4375-4.40625 9.847656-9.847657 9.847656-5.4375 0-9.847656-4.410156-9.847656-9.847656 0-5.441406 4.410156-9.851562 9.847656-9.851562 5.441407 0 9.847657 4.410156 9.847657 9.851562zm0 0" fill="#7d8287"/><g fill="#ffc14f"><path d="m62.722656 367.421875h138.917969c4.296875 0 7.777344-3.480469 7.777344-7.777344 0-4.292969-3.480469-7.773437-7.777344-7.773437h-138.917969c-4.296875 0-7.777344 3.480468-7.777344 7.773437 0 4.296875 3.480469 7.777344 7.777344 7.777344zm0 0"/><path d="m62.722656 412.84375h116.007813c4.292969 0 7.773437-3.480469 7.773437-7.773438 0-4.296874-3.480468-7.777343-7.773437-7.777343h-116.007813c-4.296875 0-7.777344 3.480469-7.777344 7.777343 0 4.292969 3.480469 7.773438 7.777344 7.773438zm0 0"/><path d="m201.640625 441.035156h-138.917969c-4.296875 0-7.777344 3.480469-7.777344 7.773438 0 4.292968 3.480469 7.777344 7.777344 7.777344h138.917969c4.296875 0 7.777344-3.484376 7.777344-7.777344 0-4.292969-3.480469-7.773438-7.777344-7.773438zm0 0"/></g><path d="m45.976562 241.640625c-1.070312-1.652344-.679687-3.855469.90625-5.023437l30.058594-22.109376 116-85.316406c9.855469-7.246094 23.765625-.210937 23.765625 12.023438v187.609375c0 2.039062-1.667969 3.707031-3.710937 3.707031h-.019532c-70.015624 0-131.582031-36.195312-167-90.890625zm0 0" fill="#f29500"/><path d="m76.941406 214.507812 116-85.316406c9.855469-7.246094 23.765625-.210937 23.765625 12.023438v148.417968c0 .003907-.003906.003907-.007812.007813-58.457031.238281-109.9375-29.699219-139.757813-75.132813zm0 0" fill="#ffb52d"/><path d="m156.433594 201.808594c0 7.011718-5.683594 12.695312-12.695313 12.695312s-12.695312-5.683594-12.695312-12.695312c0-7.007813 5.683593-12.691406 12.695312-12.691406s12.695313 5.683593 12.695313 12.691406zm0 0" fill="#f44545"/><path d="m197.128906 176.414062c0 7.011719-5.683594 12.695313-12.695312 12.695313-7.011719 0-12.695313-5.683594-12.695313-12.695313 0-7.007812 5.683594-12.691406 12.695313-12.691406 7.011718 0 12.695312 5.683594 12.695312 12.691406zm0 0" fill="#1ab975"/><path d="m172.214844 244.023438c0 7.011718-5.683594 12.695312-12.691406 12.695312-7.011719 0-12.695313-5.683594-12.695313-12.695312 0-7.011719 5.683594-12.695313 12.695313-12.695313 7.007812 0 12.691406 5.683594 12.691406 12.695313zm0 0" fill="#127d4f"/><path d="m399.714844 411.808594-76.777344 48.882812c-9.175781 5.835938-21.449219 3.109375-27.296875-6.054687l-9.671875-15.207031c-.933594-1.472657-2.476562-2.4375-4.210938-2.65625l-59.101562-7.226563c-12.066406-1.480469-21.097656-12.605469-19.460938-24.652344 1.597657-11.746093 12.453126-20.144531 24.261719-18.703125l14.386719 1.554688c3.671875.40625 6.472656-2.550782 6.472656-5.792969 0-3.207031 2.585938 3.042969-57.15625-91.4375-6.550781-10.308594-3.410156-24.117187 7.007813-30.554687.425781-.257813.859375-.507813 1.308593-.746094 10.199219-5.402344 22.878907-1.710938 29.078126 8.023437l51.847656 81.457031 56.3125-35.851562c9.175781-5.835938 21.460937-3.109375 27.296875 6.054688l36.265625 56.980468 5.503906 8.644532c5.835938 9.164062 3.109375 21.449218-6.066406 27.285156zm0 0" fill="#fdc478"/><path d="m429.65625 456.027344-80.066406 50.972656c-6.808594 4.335938-15.921875 2.3125-20.265625-4.5l-14.898438-23.40625c-3.679687-5.785156-1.980469-13.449219 3.804688-17.128906l12.160156-7.742188 71.742187-45.667968c5.773438-3.679688 13.445313-1.980469 17.125 3.804687l10.003907 15.707031 4.894531 7.691406c4.332031 6.8125 2.3125 15.933594-4.5 20.269532zm0 0" fill="#2476ed"/><path d="m429.261719 428.066406-69.820313 44.453125c-6.8125 4.332031-15.925781 2.300781-20.269531-4.5l-8.78125-13.796875 71.742187-45.667968c5.773438-3.679688 13.445313-1.980469 17.125 3.804687zm0 0" fill="#5596fb"/><path d="m400.277344 375.878906-51.078125 32.988282c-20.34375 13.132812-47.472657 7.453124-60.847657-12.734376l-90.183593-136.171874c.425781-.257813.859375-.507813 1.308593-.746094 10.199219-5.402344 22.878907-1.710938 29.078126 8.023437l51.847656 81.457031 56.3125-35.851562c9.175781-5.835938 21.460937-3.109375 27.296875 6.054688zm0 0" fill="#ffd993"/></svg>