<svg height="511pt" viewBox="-102 0 511 511.99987" width="511pt" xmlns="http://www.w3.org/2000/svg"><path d="m307.894531 229.222656v39.5c0 26.460938-16.609375 50.40625-41.726562 58.734375-11.214844 3.714844-21.265625 10.007813-29.441407 18.183594-25.601562 25.589844-21.5625 55.796875-21.976562 57.960937 0 59.367188-48.574219 108.839844-107.941406 108.394532-29.265625-.214844-55.726563-12.167969-74.933594-31.375-19.382812-19.390625-31.375-46.171875-31.375-75.75v-173.226563zm0 0" fill="#954c35"/><path d="m307.894531 229.222656v.808594c-.207031 26.261719-16.765625 49.96875-41.726562 58.25-11.214844 3.714844-21.265625 10.003906-29.441407 18.179688-25.601562 25.589843-21.5625 55.796874-21.976562 57.960937 0 59.367187-48.574219 108.839844-107.941406 108.398437-29.265625-.21875-55.726563-12.171874-74.933594-31.378906-19.382812-19.390625-31.375-46.171875-31.375-75.746094v-134.050781zm0 0" fill="#7c3f2c"/><path d="m307.894531 153.703125v75.519531c0 9.996094-8.113281 18.109375-18.109375 18.109375-20.71875 0-39.480468 8.402344-53.058594 21.980469-25.828124 25.808594-21.519531 56.730469-21.976562 59.230469 0 52.289062-37.472656 95.835937-87.03125 105.230469-6.507812 1.253906-13.222656 1.894531-20.09375 1.894531-29.585938 0-56.367188-11.992188-75.75-31.375-19.382812-19.390625-31.375-46.171875-31.375-75.75v-173.226563c0-85.15625 68.554688-155.316406 153.703125-155.316406 6.839844 0 13.574219.445312 20.175781 1.3125 34.367188 4.511719 65.164063 20.378906 88.5 43.703125 27.816406 27.816406 45.015625 66.238281 45.015625 108.6875zm0 0" fill="#ae583e"/><path d="m307.894531 153.703125v75.519531c0 9.996094-8.113281 18.109375-18.109375 18.109375-20.71875 0-39.480468 8.402344-53.058594 21.980469-25.828124 25.808594-21.519531 56.730469-21.976562 59.230469 0 52.289062-37.472656 95.835937-87.03125 105.230469-21.523438-4.074219-40.769531-14.601563-55.660156-29.480469-19.382813-19.390625-31.375-46.171875-31.375-75.75v-173.226563c0-78.367187 58.0625-144.035156 133.695312-154.003906 34.367188 4.511719 65.164063 20.378906 88.5 43.703125 27.816406 27.816406 45.015625 66.238281 45.015625 108.6875zm0 0" fill="#c0694e"/><g fill="#7c3f2c"><path d="m43.058594 105.21875c1.636718 0 3.285156-.515625 4.6875-1.582031l85.371094-64.871094c3.410156-2.59375 4.074218-7.464844 1.484374-10.875-2.59375-3.414063-7.460937-4.078125-10.878906-1.484375l-85.367187 64.871094c-3.414063 2.59375-4.074219 7.460937-1.484375 10.875 1.527344 2.007812 3.84375 3.066406 6.1875 3.066406zm0 0"/><path d="m43.058594 189.195312c1.609375 0 3.230468-.5 4.625-1.53125l175.5-130.453124c3.441406-2.558594 4.15625-7.417969 1.597656-10.859376-2.558594-3.4375-7.417969-4.15625-10.859375-1.597656l-175.5 130.449219c-3.441406 2.558594-4.15625 7.421875-1.601563 10.859375 1.527344 2.050781 3.867188 3.132812 6.238282 3.132812zm0 0"/><path d="m100.765625 221.980469c1.523437 2.027343 3.851563 3.09375 6.207031 3.09375 1.625 0 3.261719-.507813 4.660156-1.5625l140.5625-105.78125c3.425782-2.578125 4.113282-7.445313 1.53125-10.867188-2.574218-3.425781-7.441406-4.117187-10.867187-1.535156l-140.558594 105.78125c-3.425781 2.578125-4.113281 7.445313-1.535156 10.871094zm0 0"/><path d="m88.363281 231.3125c-2.578125-3.425781-7.445312-4.113281-10.867187-1.535156l-39.113282 29.433594c-3.421874 2.578124-4.109374 7.445312-1.53125 10.871093 1.523438 2.027344 3.851563 3.09375 6.207032 3.09375 1.621094 0 3.261718-.507812 4.660156-1.5625l39.109375-29.433593c3.425781-2.578126 4.113281-7.441407 1.535156-10.867188zm0 0"/><path d="m261.347656 187.21875c-2.558594-3.441406-7.417968-4.160156-10.859375-1.601562l-31.695312 23.542968c-3.4375 2.558594-4.15625 7.417969-1.601563 10.859375 1.523438 2.050781 3.867188 3.132813 6.238282 3.132813 1.609374 0 3.230468-.496094 4.621093-1.53125l31.695313-23.542969c3.4375-2.558594 4.15625-7.417969 1.601562-10.859375zm0 0"/><path d="m193.875 227.675781-141.214844 104.910157c-3.441406 2.554687-4.15625 7.414062-1.601562 10.855468 1.523437 2.050782 3.863281 3.132813 6.234375 3.132813 1.609375 0 3.234375-.496094 4.625-1.53125l141.210937-104.90625c3.441406-2.558594 4.160156-7.417969 1.605469-10.859375-2.558594-3.441406-7.417969-4.15625-10.859375-1.601563zm0 0"/><path d="m182.035156 314.496094-100.882812 73.863281c-3.460938 2.53125-4.210938 7.386719-1.679688 10.84375 1.523438 2.078125 3.878906 3.179687 6.269532 3.179687 1.589843 0 3.195312-.488281 4.578124-1.5l100.886719-73.863281c3.457031-2.53125 4.210938-7.386719 1.679688-10.84375-2.535157-3.460937-7.390625-4.210937-10.851563-1.679687zm0 0"/></g></svg>