<svg id="Capa_1" data-name="Capa 1" xmlns="http://www.w3.org/2000/svg" viewBox="0 0 100 100"><defs><style>.cls-1{fill:#bce772;}.cls-2{font-size:22.76px;font-family:Rubik-Light, Rubik;font-weight:300;letter-spacing:-0.03em;}</style></defs><title>icono</title><path class="cls-1" d="M79.82,59.5c-1.6-5.45-15.19-35.22-26.67-41.91a9.47,9.47,0,0,0-1.54-.8,4.46,4.46,0,0,0-1.53-.29h-.15a4.46,4.46,0,0,0-1.53.29,9.47,9.47,0,0,0-1.54.8C35.38,24.28,21.79,54.05,20.18,59.5c-3.07,8.14-6.65,21.2-2,26.57C20,88.46,23,88.6,25.53,89.38a121.43,121.43,0,0,0,17.2,2.07,25,25,0,0,0,3.36.11c1.31,0,2.61,0,3.91,0s2.61,0,3.91,0a24.94,24.94,0,0,0,3.36-.11,121.4,121.4,0,0,0,17.21-2.07c2.5-.78,5.54-.92,7.33-3.31C86.48,80.7,82.89,67.64,79.82,59.5Z"/><path d="M50.75,82.43H49.29a4.51,4.51,0,0,0-1.35-3.16,4.16,4.16,0,0,0-3-1.24l0-1.46A5.62,5.62,0,0,1,49,78.23,6,6,0,0,1,50.75,82.43Z"/><path d="M50.75,76l-1.46,0a9.12,9.12,0,0,0-2.77-6.57A9,9,0,0,0,40,66.73l0-1.46a10.36,10.36,0,0,1,7.58,3.14A10.64,10.64,0,0,1,50.75,76Z"/><path d="M50.73,78.53l-1.45-.13c.77-8.34,6.63-8.22,16.34-8,2.71.06,5.77.13,9.17,0l0,1.45c-3.43.1-6.52,0-9.24,0C55.48,71.63,51.35,71.81,50.73,78.53Z"/><path d="M50.73,100H49.27c0-7.79,0-15.78,0-23.51,0-4,0-7.94,0-11.94h1.46c0,4,0,8,0,11.94C50.75,84.21,50.76,92.2,50.73,100Z"/><text class="cls-2" transform="translate(44.03 16.29)">L</text></svg>