<svg id="Capa_1" data-name="Capa 1" xmlns="http://www.w3.org/2000/svg" viewBox="0 0 1080 730"><defs><style>.cls-1{fill:#005e73;}.cls-2{fill:#008a78;}.cls-3{fill:#2dae2f;}.cls-4{fill:#00747f;}.cls-5{fill:#fff;}</style></defs><title>LOGO</title><path class="cls-1" d="M461.77,433.2l20.41,11.67s-17.5,52.5,32.09,154.58l-58.34-32.08S438.43,491.54,461.77,433.2Z"/><path class="cls-2" d="M651.34,605.28S523,631.53,528.85,444.87H482.18S464.68,547,523,599.45C523,599.45,569.68,652,651.34,605.28Z"/><path class="cls-3" d="M730.09,517.79,733,491.54,566.76,444.87S560.93,512,616.35,570.28l142.91,40.84S733,579,733,552.78L686.34,582l-55.41-23.33V535.29l58.33-29.17,40.83,14.58Z"/><path class="cls-4" d="M943,474s-55.41-122.5-137.08-55.42c0,0-78.74,55.42-23.33,172.08,0,0,26.25,55.41,87.5,43.75,0,0,58.33-14.58,64.16-64.17,0,0-43.75,75.83-105,29.17,0,0-46.67-29.17-35-107.91C794.26,491.54,849.67,357.37,943,474Z"/><path class="cls-1" d="M464.68,132.8s-2.91-52.5-23.33-58.33L770.92,191.13S823.42,299,811.76,351.54l-37.92-23.33S788.42,234.88,663,202.8Z"/><path class="cls-2" d="M161.36,156.13S6.78,433.2,161.36,582L479.27,707.36S298.44,561.53,482.18,267Z"/><path d="M485.48,709.23a3,3,0,0,1-1.07-.2L161.67,582.34a2.89,2.89,0,0,1-1.06-.7C77.14,493.44,81.55,382.23,100,304.48c19.86-84,59.91-148,60.32-148.68a2.92,2.92,0,0,1,3.41-1.21L480.39,263.18a2.86,2.86,0,0,1,1.59,1.33l27.15,48.26a2.9,2.9,0,0,1,0,2.93c-67.95,112.73-62,208.25-45,268.53,18.41,65.39,53.37,104.66,53.72,105a2.9,2.9,0,0,1,.7,2.49,2.86,2.86,0,0,1-1.56,2.07l-30.16,15.08A2.86,2.86,0,0,1,485.48,709.23ZM164.4,577.15l320.93,126L511,690.28c-8.42-10.34-36.53-47.75-52.48-104.2-17.28-61.18-23.49-157.93,44.68-271.93l-25.77-45.81L164,160.87c-6.79,11.32-40.72,70.22-58.41,145.1C87.59,382.15,83.22,491,164.4,577.15Z"/><path d="M481,710.74a2.87,2.87,0,0,1-2-.82C386,620.14,390.9,504,411.39,422.45c22.11-88.07,66.68-155.94,67.13-156.62a2.92,2.92,0,1,1,4.86,3.23c-.44.67-44.53,67.83-66.37,155-20.07,80.05-24.92,193.9,66,281.71a2.91,2.91,0,0,1-2,5Z"/><path d="M848.94,372.92A2.92,2.92,0,0,1,846,370c0-109.77-53.58-207.52-59.41-217.82L473,35.69,446.15,73.24c22.37,12.43,22.64,56.51,22.64,58.47a2.92,2.92,0,0,1-5.84,0c0-.46-.28-46.34-22.24-54.58A2.87,2.87,0,0,1,439,75.25a2.91,2.91,0,0,1,.42-2.54l30.16-42.23a2.93,2.93,0,0,1,3.39-1L789.63,147.08a2.88,2.88,0,0,1,1.5,1.25c.6,1,60.72,104.59,60.72,221.67A2.91,2.91,0,0,1,848.94,372.92Z"/><path d="M811.24,353.31a3.25,3.25,0,0,1-.44,0,2.92,2.92,0,0,1-2.45-3.32c8.32-55.45-34.69-145-39.92-155.57L440.76,77.15a2.91,2.91,0,1,1,2-5.49L771.5,189.29a2.87,2.87,0,0,1,1.61,1.43c2.06,4,50.09,99.55,41,160.11A2.92,2.92,0,0,1,811.24,353.31Z"/><path d="M772,332.2l-.26,0a2.9,2.9,0,0,1-2.64-3.16c8.7-98.66-94.27-118.24-98.65-119a3.07,3.07,0,0,1-.52-.14L317.82,77.43C228,95.24,206.2,171.22,206,172a2.92,2.92,0,0,1-5.63-1.53c.22-.8,23-80.68,117.16-98.91a2.84,2.84,0,0,1,1.58.13L671.77,204.3c6.3,1.25,112.11,23.8,103.16,125.24A2.93,2.93,0,0,1,772,332.2Z"/><path d="M114.77,266a3.09,3.09,0,0,1-1-.18L36.54,237a3,3,0,0,1-1.66-1.56c-.42-1-10.17-23.73-.81-42.79C39.3,182,49.37,174.77,64,171.11a2.9,2.9,0,0,1,1.52,0l77,22.56a2.92,2.92,0,1,1-1.64,5.6L64.65,177c-12.46,3.28-21,9.41-25.33,18.23-7.1,14.42-1.26,32.22.47,36.8l76,28.33a2.92,2.92,0,0,1-1,5.65Z"/><path d="M760.59,510.37a2.87,2.87,0,0,1-1.24-.28l-29.1-13.69-163.2-49.69-84.83,1.08a2.84,2.84,0,0,1-3-2.88,2.92,2.92,0,0,1,2.88-3l85.28-1.08a3.3,3.3,0,0,1,.89.12l163.83,49.89a2.26,2.26,0,0,1,.39.15l29.29,13.79a2.91,2.91,0,0,1-1.24,5.55Z"/><path d="M671,315.61l-.27,0a2.92,2.92,0,0,1-2.64-3.17l6-63.87L660.18,205a2.92,2.92,0,0,1,5.56-1.77l14,44.12a3.05,3.05,0,0,1,.13,1.16l-6,64.46A2.92,2.92,0,0,1,671,315.61Z"/><path d="M835.92,637.37a2.71,2.71,0,0,1-.83-.13L615.85,571.87a3,3,0,0,1-1.07-.59c-.89-.77-88.46-78.19-30.94-196.41,1.83-4.67,41.35-100.59,175.59-52.86l.34.14,104.06,52.79a2.92,2.92,0,0,1-2.64,5.2L757.3,327.44c-54.34-19.28-100.59-16.85-133.77,7-25.1,18.08-34.18,42.31-34.27,42.55a1.69,1.69,0,0,1-.12.28c-53.51,109.84,22.42,183.11,29,189.16l218.61,65.18a2.92,2.92,0,0,1-.84,5.72Z"/><path d="M730.09,520.7h0a2.91,2.91,0,0,1-2.89-2.94c0-3,1.1-72.77,44.37-114.65,21.42-20.73,49.56-30.85,83.49-30,.83.07,59.66,7,81.12,71.36a2.92,2.92,0,1,1-5.53,1.85c-20.25-60.72-75.42-67.34-76-67.4-32.16-.73-58.8,8.77-79,28.37C734.07,447.5,733,517.11,733,517.81A2.92,2.92,0,0,1,730.09,520.7Z"/><path d="M930.77,451.42a2.91,2.91,0,0,1-1.46-5.44l57.44-33.1L933.66,394.3l-23.09,12.77a2.92,2.92,0,1,1-2.83-5.1L932,388.56a2.91,2.91,0,0,1,2.38-.2l60.32,21.11a2.93,2.93,0,0,1,1.94,2.49,2.89,2.89,0,0,1-1.45,2.79L932.22,451A2.85,2.85,0,0,1,930.77,451.42Z"/><path d="M943.41,478.26a2.92,2.92,0,0,1-1.25-5.55L990.8,449.6V412.23a2.92,2.92,0,1,1,5.83,0v39.21a2.89,2.89,0,0,1-1.66,2.63L944.66,478A2.92,2.92,0,0,1,943.41,478.26Z"/><path d="M993.72,443.23a2.92,2.92,0,0,1-.84-5.71l61.26-18.41V395.83L995,425.39a2.91,2.91,0,0,1-2.61-5.21l63.35-31.68a2.92,2.92,0,0,1,4.22,2.61v30.17a2.93,2.93,0,0,1-2.08,2.79l-63.34,19A2.77,2.77,0,0,1,993.72,443.23Z"/><path d="M713.2,315.61a2.93,2.93,0,0,1-2.5-4.42l26.19-43.85-1-25.42a2.92,2.92,0,1,1,5.83-.22l1,26.28a2.87,2.87,0,0,1-.41,1.61l-26.63,44.59A2.91,2.91,0,0,1,713.2,315.61Z"/><path d="M806.34,415.14A2.9,2.9,0,0,1,804,414l-15-20.42L626.45,331a2.92,2.92,0,0,1-1.59-1.48L602.14,281.1l-26.42-31.21L236.89,118.31a2.91,2.91,0,1,1,2.12-5.43L578.53,244.72a2.92,2.92,0,0,1,1.17.83l27.15,32.08a3,3,0,0,1,.41.64L629.64,326l162.29,62.37a2.89,2.89,0,0,1,1.31,1l15.45,21.12a2.91,2.91,0,0,1-2.35,4.63Z"/><path d="M828.11,404.28a2.94,2.94,0,0,1-2.5-1.4l-14.89-24.56-140.93-63a2.91,2.91,0,1,1,2.38-5.32l141.76,63.34a2.92,2.92,0,0,1,1.31,1.15l15.36,25.33a2.91,2.91,0,0,1-1,4A2.85,2.85,0,0,1,828.11,404.28Z"/><path d="M771.05,458.88a2.89,2.89,0,0,1-1.94-.74l-18.2-16.2L583.39,383.38a2.92,2.92,0,0,1-.88-.49L513.8,327a2.92,2.92,0,1,1,3.68-4.53L585.79,378l167.59,58.58a3,3,0,0,1,1,.58L773,453.78a2.92,2.92,0,0,1-1.94,5.1Z"/><path d="M537.6,532.37a2.92,2.92,0,0,1-1.83-5.19L572.14,498a2.92,2.92,0,0,1,3.66,4.55l-36.38,29.22A2.89,2.89,0,0,1,537.6,532.37Z"/><path d="M572.59,587.78a2.91,2.91,0,0,1-2.54-4.34l22.86-40.68a2.92,2.92,0,0,1,5.09,2.86L575.14,586.3A2.91,2.91,0,0,1,572.59,587.78Z"/><path d="M686.83,560.76a3,3,0,0,1-1.05-.2l-55.07-21.42a2.89,2.89,0,0,1-1.85-2.55,2.92,2.92,0,0,1,1.55-2.75l58.12-30.59a2.93,2.93,0,0,1,2.39-.15l49,18.36a2.92,2.92,0,0,1,.56,5.18l-52,33.65A2.92,2.92,0,0,1,686.83,560.76Zm-48-24.73,47.71,18.55,45.9-29.7L690.09,509Z"/><path d="M855.51,637.37c-53.08,0-96.25-54.3-96.25-121s43.17-121,96.25-121,96.24,54.3,96.24,121S908.58,637.37,855.51,637.37Zm0-236.25c-49.86,0-90.42,51.68-90.42,115.21s40.56,115.2,90.42,115.2,90.41-51.68,90.41-115.2S905.36,401.12,855.51,401.12Z"/><path d="M870.09,617c-42.91,0-77.81-43.83-77.81-97.71s34.9-97.7,77.81-97.7,77.81,43.83,77.81,97.7S913,617,870.09,617Zm0-189.58c-39.69,0-72,41.22-72,91.87s32.29,91.88,72,91.88,72-41.22,72-91.88S909.78,427.37,870.09,427.37Z"/><path d="M686.34,584.87a3,3,0,0,1-1.13-.23L629.8,561.31a2.93,2.93,0,0,1-1.79-2.69V538.2a2.92,2.92,0,0,1,5.84,0v18.48l52.25,22,49.83-30.45V526.54a2.92,2.92,0,1,1,5.83,0v23.33a2.92,2.92,0,0,1-1.4,2.49l-52.5,32.08A2.94,2.94,0,0,1,686.34,584.87Z"/><path d="M686.34,584.87a2.91,2.91,0,0,1-2.91-2.92V558.62a2.92,2.92,0,1,1,5.83,0V582A2.92,2.92,0,0,1,686.34,584.87Z"/><path d="M760.59,614.9a2.9,2.9,0,0,1-2.19-1c-25.2-28.62-29.44-58-29.61-59.28a2.92,2.92,0,0,1,5.79-.78c0,.28,4.22,29,28.2,56.21a2.91,2.91,0,0,1-2.19,4.84Z"/><path d="M626.4,609.65a85.67,85.67,0,0,1-24.33-3.5C536.47,586.77,506.74,491,535.8,392.58S641.87,229.92,707.49,249.3c32,9.45,56.47,37,68.92,77.65a2.92,2.92,0,0,1-5.58,1.71c-11.85-38.69-34.93-64.89-65-73.77-62.51-18.45-136.29,44-164.44,139.34s-.19,187.86,62.34,206.33c24.54,7.25,51.4,2.34,77.69-14.19a2.92,2.92,0,1,1,3.1,4.94C665.18,603.48,645.45,609.65,626.4,609.65Z"/><path d="M588.89,627.88a96.42,96.42,0,0,1-31.07-5c-74.26-25.16-103.51-137.59-65.21-250.61C525.29,275.78,596.2,208.17,665.05,207.8h0a2.92,2.92,0,0,1,0,5.84c-65.34.34-135.56,67.82-167,160.45-37.27,110-9.65,219.08,61.56,243.22,31.22,10.57,67.3,3.3,101.61-20.5a2.92,2.92,0,0,1,3.33,4.8C639.6,619,613.56,627.88,588.89,627.88Z"/><path d="M523,602.37a2.79,2.79,0,0,1-1.25-.29L454.68,570a2.91,2.91,0,1,1,2.51-5.26l67.08,32.08a2.92,2.92,0,0,1-1.26,5.55Z"/><path class="cls-5" d="M861.7,514l7.11-14.66a15,15,0,0,1,18.05-7.73l105.63,33.83-16.8,43.93L870.32,534.44A14.74,14.74,0,0,1,861.7,514Z"/><path d="M975.69,572.29a2.91,2.91,0,0,1-.92-.15L869.4,537.21a17.66,17.66,0,0,1-10.33-24.47h0l7.12-14.66a18,18,0,0,1,21.56-9.23l105.63,33.82a2.93,2.93,0,0,1,1.84,3.82l-16.81,43.93A2.92,2.92,0,0,1,975.69,572.29Zm-111.37-57a11.83,11.83,0,0,0,6.92,16.39L974,565.73l14.71-38.44L886,494.4a12.11,12.11,0,0,0-14.53,6.22Z"/><path d="M971.19,570.8a2.89,2.89,0,0,1-2.5-1.42c-.53-.88-12.91-21.86-4.82-35.34,4.52-7.53,14.2-11,28.82-10.24a2.91,2.91,0,1,1-.29,5.82c-12.29-.6-20.2,1.88-23.52,7.42-5.24,8.73,1.7,24.14,4.82,29.35a2.91,2.91,0,0,1-2.51,4.41Z"/></svg>