<svg id="Capa_1" data-name="Capa 1" xmlns="http://www.w3.org/2000/svg" viewBox="0 0 100 100"><defs><style>.cls-1{fill:#95e4db;}.cls-2{font-size:21.73px;font-family:Rubik-Light, Rubik;font-weight:300;}</style></defs><title>icono</title><path class="cls-1" d="M75.63,54.16c-1.16,33.44-50,34.76-51.26-.54C26,20.9,73.78,19.58,75.63,54.16Z"/><path d="M50.79,65.54l-1.6,0a4.86,4.86,0,0,0-1.45-3.42,4.72,4.72,0,0,0-3.39-1.41l0-1.61h.08A6.25,6.25,0,0,1,48.87,61,6.39,6.39,0,0,1,50.79,65.54Z"/><path d="M49.18,61.18a8.75,8.75,0,0,1,2.62-6.27A8.59,8.59,0,0,1,58,52.32l0,1.6h-.1a7,7,0,0,0-5,2.12,7.13,7.13,0,0,0-2.15,5.11Z"/><path d="M50.77,100h-1.6c0-8.27,0-16.72,0-24.89,0-8.6,0-17.5,0-26.29H50.8c0,8.79,0,17.69,0,26.29C50.79,83.28,50.8,91.73,50.77,100Z"/><text class="cls-2" transform="translate(41.53 15.87)">M</text></svg>