<svg id="Capa_1" data-name="Capa 1" xmlns="http://www.w3.org/2000/svg" viewBox="0 0 100 100"><defs><style>.cls-1{fill:#ff559b;}.cls-2{fill:none;stroke:#000;stroke-miterlimit:10;stroke-width:2px;}.cls-3{font-size:28.71px;font-family:Rubik-Light, Rubik;font-weight:300;}</style></defs><title>icono</title><path d="M46.05,80.25l-1.18,0a3.63,3.63,0,0,0-1.07-2.52,3.51,3.51,0,0,0-2.49-1l0-1.17h.06a4.63,4.63,0,0,1,3.29,1.38A4.75,4.75,0,0,1,46.05,80.25Z"/><path d="M45,78.5A6.43,6.43,0,0,1,47,73.89,6.26,6.26,0,0,1,51.53,72l0,1.18h-.07a5.11,5.11,0,0,0-3.65,1.56,5.23,5.23,0,0,0-1.59,3.76Z"/><path d="M45,85.63A6.43,6.43,0,0,1,47,81a6.29,6.29,0,0,1,4.58-1.9l0,1.17h-.07a5.15,5.15,0,0,0-3.65,1.56,5.27,5.27,0,0,0-1.59,3.76Z"/><path d="M46,100H44.86c0-6.08,0-12.3,0-18.31,0-6.33,0-12.88,0-19.34h1.18c0,6.46,0,13,0,19.34C46.05,87.7,46.05,93.92,46,100Z"/><path class="cls-1" d="M45,68.35a6.68,6.68,0,0,0-.5-.55,8.55,8.55,0,0,0-2.55-1.74s-1.76-.5-1.76-.55a8.52,8.52,0,0,0-2.57-.09l-.69.08-.08.69A8.31,8.31,0,0,0,45,75.49v-3.3h0Z"/><path class="cls-2" d="M40.32,65.52a10.71,10.71,0,0,1,4.58-9.18s11,7.64,1.41,18.85"/><path d="M56.84,86.38h.81a2.47,2.47,0,0,1,.74-1.74,2.42,2.42,0,0,1,1.72-.72V83.1h0a3.19,3.19,0,0,0-2.27,1A3.22,3.22,0,0,0,56.84,86.38Z"/><path d="M57.54,85.17A4.43,4.43,0,0,0,56.22,82a4.34,4.34,0,0,0-3.16-1.31v.81h0a3.55,3.55,0,0,1,2.52,1.07,3.63,3.63,0,0,1,1.09,2.6Z"/><path d="M57.54,90.09a4.43,4.43,0,0,0-1.32-3.18,4.34,4.34,0,0,0-3.16-1.31v.81h0a3.55,3.55,0,0,1,2.52,1.07,3.63,3.63,0,0,1,1.09,2.6Z"/><path d="M56.85,100h.81c0-4.2,0-8.48,0-12.63,0-4.36,0-8.88,0-13.34h-.82c0,4.46,0,9,0,13.34C56.84,91.52,56.84,95.8,56.85,100Z"/><path class="cls-1" d="M57.59,78.17c.11-.13.23-.26.35-.38a5.87,5.87,0,0,1,1.75-1.2s1.21-.34,1.21-.37a5.56,5.56,0,0,1,1.77-.07l.48.06.06.47a5.74,5.74,0,0,1-5.62,6.42V80.82h0Z"/><path d="M56.39,83.12l.53-.46c-2-2.33-2.85-4.66-2.56-6.91a8.85,8.85,0,0,1,3.27-5.42,7,7,0,0,1,2.81,5.86l.7.06a7.68,7.68,0,0,0-3.31-6.65l-.2-.14-.2.14a9.59,9.59,0,0,0-3.77,6.06C53.35,78.12,54.26,80.63,56.39,83.12Z"/><text class="cls-3" transform="translate(42.94 15.72)">s</text></svg>